<?xml version="1.0" standalone="no"?><!DOCTYPE svg PUBLIC "-//W3C//DTD SVG 1.1//EN" "http://www.w3.org/Graphics/SVG/1.1/DTD/svg11.dtd"><svg t="1697007748180" class="icon" viewBox="0 0 1024 1024" version="1.1" xmlns="http://www.w3.org/2000/svg" p-id="7804" xmlns:xlink="http://www.w3.org/1999/xlink" width="200" height="200"><path d="M502.3 451.9c-37.9 0-74.6-11.2-106-32.3-52.7-35.5-84.2-94.5-84.2-157.9 0-105 85.3-190.4 190.2-190.4 105 0 190.4 85.4 190.4 190.4 0 55.9-24.4 108.6-67.1 144.8-34.4 29.3-78.2 45.4-123.3 45.4z m0-338.6c-81.7 0-148.2 66.6-148.2 148.4 0 49.4 24.5 95.4 65.6 123.1 53.6 36 129.4 31.7 178.8-10.3 33.2-28.2 52.3-69.3 52.3-112.8-0.1-81.8-66.7-148.4-148.5-148.4z" fill="#1E1E1E" p-id="7805"></path><path d="M806 952.7H197V725.2c0-124.1 75-238 188-288.1v-0.3l13.4-5.4c72.6-28.3 154.6-28.3 227.3 0L639 437c35.5 15.6 67.6 37.6 95.5 65.5 59.7 59.9 92.5 139 92.5 222.7V766h-42v-40.9c0-72.5-28.5-141.1-80.2-193-27.2-27.2-58.9-47.9-94.3-61.5l-10.9-4.2c-57.6-19.7-121.6-19.2-179 1.3l-7 2.8C309.2 511.2 239 613.5 239 725.2v185.5h567v42z" fill="#1E1E1E" p-id="7806"></path><path d="M512 559.9c-62.1 0-115.4-44.2-126.7-105.1l-0.3-3.8v-14.4l13.4-5.4c72.6-28.3 154.6-28.3 227.3 0l13.4 5.2-0.3 18.4c-11.4 61-64.7 105.1-126.8 105.1z m-80.4-95.8c13.1 32 44.6 53.9 80.4 53.9s67.3-21.8 80.4-53.9c-52-16.2-108.8-16.2-160.8 0z" fill="#1E1E1E" p-id="7807"></path></svg>