<?xml version="1.0" standalone="no"?><!DOCTYPE svg PUBLIC "-//W3C//DTD SVG 1.1//EN" "http://www.w3.org/Graphics/SVG/1.1/DTD/svg11.dtd"><svg t="1697007812156" class="icon" viewBox="0 0 1024 1024" version="1.1" xmlns="http://www.w3.org/2000/svg" p-id="11471" xmlns:xlink="http://www.w3.org/1999/xlink" width="200" height="200"><path d="M1013.76 371.3536v167.0656c0 44.544-38.9632 83.5584-83.5584 83.5584s-83.5584-38.9632-83.5584-83.5584V371.3536c0-22.272 11.1616-44.544 22.272-55.7056-66.7648-144.7936-189.2864-250.624-350.7712-250.624h-5.5808c-167.0656 0-289.5872 105.8304-356.4032 250.624 11.1616 11.1616 22.272 33.4336 22.272 55.7056v167.0656c0 44.544-38.9632 83.5584-83.5584 83.5584s-83.5584-38.9632-83.5584-83.5584V371.3536c0-44.544 38.9632-83.5584 83.5584-83.5584h5.5808c66.816-161.4848 228.352-278.4256 412.1088-278.4256s345.2928 116.9408 412.1088 278.4256h5.5808c44.544 0 83.5072 38.9632 83.5072 83.5584z m0 640.4096H11.3664c0-128.1024 222.7712-278.4256 501.1968-278.4256S1013.76 883.6608 1013.76 1011.7632z m-77.9776-55.7056c-55.7056-77.9776-222.7712-167.0656-423.2192-167.0656s-367.5648 89.088-423.2192 167.0656h846.4384z m-423.2192-222.7712c-155.9552 0-278.4256-122.5216-278.4256-278.4256s122.5216-278.4256 278.4256-278.4256 278.4256 122.5216 278.4256 278.4256-122.5216 278.4256-278.4256 278.4256z m222.7712-278.4256c0-122.5216-100.2496-222.7712-222.7712-222.7712S289.792 332.3392 289.792 454.8608s100.2496 222.7712 222.7712 222.7712 222.7712-100.2496 222.7712-222.7712z" fill="#040000" p-id="11472"></path></svg>